# xmcd
#
# Track frame offsets: 
#        150
#        16740
#        37362
#        58813
#        85879
#        102285
#        132446
#
# Disc length: 2029 seconds
#
# Revision: 0
# Processed by: cddbd v1.5.2PL0 Copyright (c) Steve Scherf et al.
# Submitted via: ExactAudioCopyFreeDBPlugin 1.0
#
DISCID=5c07eb07
DTITLE=Mark Kerr - Blues Nation
DYEAR=2010
DGENRE=Blues
TTITLE0=Every Dog Has It's Day
TTITLE1=Devil In Disguise
TTITLE2=Born Under A Bad Sign
TTITLE3=Dreamers Paradise
TTITLE4=Woman Down In Texas
TTITLE5=Little Miss Feel Good
TTITLE6=Les's Blues
EXTD=
EXTT0=
EXTT1=
EXTT2=
EXTT3=
EXTT4=
EXTT5=
EXTT6=
PLAYORDER=
